<?xml version="1.0" encoding="UTF-8"?>
<svg xmlns="http://www.w3.org/2000/svg" width="120" height="120" viewBox="0 0 640 640" shape-rendering="geometricPrecision">
<rect width="640" height="640" fill="rgb(254, 255, 254)"/>
<path d="M 329 638 L 327 636 L 327 634 L 314 610 L 311 607 L 310 604 L 299 590 L 297 586 L 296 586 L 289 578 L 289 577 L 288 577 L 283 572 L 278 570 L 274 567 L 266 567 L 260 571 L 255 579 L 244 590 L 244 591 L 242 592 L 242 593 L 240 594 L 240 595 L 237 597 L 216 618 L 216 619 L 210 625 L 204 634 L 204 636 L 202 639 L 329 639 Z M 313 550 L 313 561 L 318 577 L 320 578 L 323 586 L 326 589 L 338 609 L 361 639 L 522 639 L 530 629 L 532 622 L 531 612 L 526 602 L 513 588 L 497 576 L 471 563 L 437 553 L 432 553 L 427 551 L 393 545 L 387 545 L 365 541 L 357 541 L 356 540 L 330 540 L 319 544 Z M 0 639 L 177 639 L 204 615 L 233 585 L 247 564 L 251 554 L 251 546 L 246 541 L 238 540 L 226 543 L 209 551 L 194 554 L 158 553 L 84 540 L 58 540 L 34 546 L 18 554 L 2 568 L 0 568 Z M 62 485 L 62 486 L 63 486 L 63 485 Z M 318 497 L 322 507 L 330 513 L 335 514 L 338 516 L 342 516 L 343 517 L 347 517 L 348 518 L 353 518 L 354 519 L 360 519 L 361 520 L 371 521 L 372 522 L 380 522 L 381 523 L 391 524 L 392 525 L 409 526 L 410 527 L 429 527 L 430 526 L 435 526 L 436 525 L 441 524 L 445 522 L 450 517 L 450 515 L 452 511 L 451 506 L 449 503 L 444 498 L 435 492 L 433 492 L 423 482 L 423 480 L 421 476 L 421 473 L 420 472 L 419 467 L 417 464 L 409 457 L 397 450 L 378 450 L 372 453 L 370 453 L 364 457 L 359 459 L 338 473 L 331 480 L 330 480 L 322 489 Z M 87 483 L 87 486 L 86 487 L 86 499 L 90 507 L 96 513 L 111 521 L 123 525 L 126 525 L 130 527 L 137 528 L 138 529 L 143 529 L 144 530 L 154 531 L 155 532 L 165 532 L 166 533 L 193 533 L 194 532 L 203 532 L 204 531 L 210 531 L 215 529 L 219 529 L 225 526 L 227 526 L 231 524 L 231 523 L 233 522 L 239 515 L 239 511 L 236 503 L 221 483 L 219 482 L 218 480 L 211 473 L 210 473 L 209 471 L 208 471 L 207 469 L 201 464 L 201 463 L 199 462 L 199 461 L 177 439 L 177 438 L 176 438 L 170 432 L 168 432 L 164 427 L 159 424 L 153 422 L 148 422 L 142 424 L 136 428 L 132 433 L 130 434 L 129 437 L 127 439 L 126 443 L 124 445 L 122 451 L 115 464 L 109 470 L 94 475 Z M 320 405 L 311 405 L 303 408 L 300 410 L 297 414 L 296 414 L 289 425 L 289 427 L 287 430 L 287 432 L 284 439 L 284 442 L 282 446 L 281 457 L 280 458 L 280 465 L 281 466 L 282 471 L 286 475 L 290 477 L 302 477 L 303 476 L 306 476 L 307 475 L 312 474 L 317 471 L 321 470 L 340 457 L 340 456 L 342 455 L 342 454 L 346 450 L 348 446 L 349 441 L 347 438 L 347 436 L 341 432 L 334 431 L 331 428 L 330 426 L 330 412 L 326 408 Z M 260 395 L 253 397 L 239 409 L 237 409 L 236 410 L 225 410 L 224 409 L 218 409 L 216 410 L 212 414 L 209 422 L 209 434 L 210 435 L 210 439 L 214 447 L 214 449 L 220 457 L 221 460 L 225 464 L 226 467 L 227 467 L 229 470 L 234 474 L 234 475 L 245 481 L 252 481 L 253 480 L 253 478 L 257 476 L 257 474 L 260 469 L 261 464 L 263 461 L 263 457 L 265 455 L 265 453 L 267 449 L 267 445 L 269 441 L 270 432 L 272 427 L 272 418 L 273 416 L 272 415 L 272 409 L 271 408 L 271 406 L 269 402 L 265 398 Z M 516 310 L 513 310 L 512 309 L 500 309 L 499 310 L 495 310 L 482 317 L 473 327 L 468 338 L 468 344 L 467 345 L 468 347 L 468 354 L 474 366 L 482 373 L 487 375 L 500 375 L 501 374 L 504 374 L 510 371 L 518 363 L 525 353 L 525 350 L 527 345 L 527 338 L 526 337 L 525 322 L 521 314 Z M 5 236 L 5 238 L 6 238 L 6 236 Z M 148 239 L 144 241 L 137 234 L 124 232 L 123 234 L 115 236 L 113 242 L 107 240 L 99 241 L 96 243 L 98 246 L 94 246 L 93 249 L 91 246 L 86 250 L 77 249 L 72 258 L 62 257 L 58 259 L 57 265 L 55 263 L 48 263 L 47 266 L 39 267 L 40 271 L 36 274 L 30 274 L 22 282 L 19 282 L 21 284 L 20 286 L 13 283 L 11 285 L 12 288 L 9 289 L 10 292 L 6 295 L 2 295 L 6 289 L 0 292 L 0 368 L 8 369 L 10 378 L 15 378 L 11 383 L 18 386 L 18 390 L 16 391 L 17 406 L 14 407 L 14 409 L 18 410 L 18 420 L 13 424 L 14 431 L 12 432 L 10 456 L 12 467 L 17 470 L 19 484 L 24 482 L 25 484 L 23 486 L 25 490 L 33 488 L 34 492 L 41 492 L 42 490 L 48 489 L 54 491 L 60 482 L 68 482 L 66 479 L 74 475 L 74 466 L 78 465 L 81 461 L 75 460 L 74 458 L 82 457 L 81 453 L 84 452 L 81 450 L 82 446 L 91 441 L 90 438 L 93 433 L 97 433 L 99 425 L 104 426 L 106 424 L 107 417 L 116 416 L 114 414 L 117 410 L 119 412 L 126 402 L 130 401 L 130 392 L 135 385 L 136 377 L 139 373 L 139 364 L 142 363 L 140 354 L 142 353 L 144 355 L 146 352 L 145 338 L 149 334 L 145 326 L 149 325 L 149 322 L 146 323 L 145 321 L 151 313 L 151 300 L 154 294 L 155 282 L 153 278 L 156 272 L 151 272 L 151 259 L 153 258 L 155 262 L 154 250 L 146 244 Z M 31 482 L 33 481 L 34 483 L 32 484 Z M 13 466 L 15 465 L 17 466 L 18 468 L 16 469 L 14 468 Z M 15 429 L 17 428 L 18 429 L 18 431 L 16 432 L 15 431 Z M 116 402 L 118 401 L 119 403 L 117 404 Z M 145 334 L 147 333 L 148 335 L 146 336 Z M 6 295 L 8 294 L 9 296 L 7 297 Z M 13 286 L 14 285 L 16 285 L 17 287 L 16 288 L 14 288 Z M 32 276 L 34 277 L 34 281 L 33 282 L 31 282 L 30 281 L 30 278 Z M 81 254 L 81 252 L 82 251 L 87 251 L 88 252 L 86 255 L 82 255 Z M 139 240 L 141 239 L 142 241 L 140 242 Z M 292 207 L 292 208 L 293 208 L 293 207 Z M 353 206 L 353 207 L 355 208 L 355 206 Z M 188 168 L 182 168 L 181 169 L 175 170 L 160 179 L 160 180 L 158 181 L 158 182 L 154 186 L 153 189 L 151 191 L 151 193 L 149 197 L 149 209 L 150 210 L 151 217 L 153 219 L 153 221 L 162 231 L 164 231 L 165 233 L 169 235 L 171 235 L 173 237 L 185 235 L 187 233 L 197 228 L 200 225 L 202 225 L 209 218 L 209 216 L 212 212 L 213 206 L 214 205 L 213 193 L 208 182 L 205 178 L 198 172 Z M 78 162 L 78 163 L 79 163 L 79 162 Z M 92 143 L 92 144 L 93 144 L 93 143 Z M 0 130 L 0 234 L 3 233 L 13 233 L 15 237 L 19 238 L 17 236 L 19 231 L 22 231 L 23 233 L 21 235 L 23 235 L 24 233 L 28 234 L 35 233 L 41 229 L 47 229 L 48 228 L 52 229 L 53 226 L 64 225 L 65 224 L 65 219 L 67 217 L 76 217 L 77 220 L 79 220 L 80 218 L 86 217 L 88 215 L 97 215 L 96 212 L 97 210 L 101 209 L 110 210 L 116 208 L 117 206 L 119 206 L 118 198 L 120 196 L 125 200 L 128 200 L 128 199 L 125 198 L 127 195 L 124 195 L 121 192 L 118 192 L 117 190 L 114 189 L 112 185 L 110 186 L 108 185 L 103 186 L 101 183 L 102 182 L 105 183 L 105 182 L 102 180 L 102 178 L 99 180 L 93 174 L 90 174 L 88 169 L 85 170 L 82 167 L 77 166 L 70 159 L 68 161 L 66 161 L 65 160 L 65 155 L 63 153 L 60 155 L 57 151 L 57 149 L 54 148 L 54 150 L 51 151 L 50 148 L 52 146 L 50 145 L 48 146 L 43 145 L 37 138 L 34 137 L 27 138 L 22 131 L 18 131 L 14 128 L 11 130 L 7 129 Z M 113 205 L 113 203 L 114 202 L 116 202 L 117 203 L 115 206 Z M 113 192 L 114 191 L 116 191 L 117 193 L 116 194 L 114 194 Z M 97 186 L 98 185 L 100 185 L 102 187 L 102 189 L 101 190 L 98 190 L 97 189 Z M 91 176 L 93 175 L 94 177 L 92 178 Z M 75 165 L 77 166 L 77 169 L 76 170 L 74 169 L 74 166 Z M 36 143 L 38 142 L 40 145 L 39 146 L 37 146 L 36 145 Z M 17 134 L 18 133 L 21 133 L 22 135 L 21 136 L 18 136 Z M 154 102 L 154 103 L 155 103 L 155 102 Z M 154 98 L 154 99 L 155 99 L 155 98 Z M 379 19 L 369 18 L 370 21 L 367 25 L 365 22 L 363 22 L 362 25 L 352 28 L 351 31 L 355 29 L 355 33 L 347 33 L 345 35 L 345 40 L 339 43 L 339 47 L 336 50 L 337 53 L 332 53 L 334 56 L 329 57 L 329 59 L 326 60 L 329 60 L 330 62 L 323 66 L 321 69 L 322 74 L 316 75 L 317 78 L 313 81 L 313 84 L 310 87 L 306 87 L 304 94 L 297 99 L 297 102 L 289 106 L 289 112 L 279 119 L 274 129 L 266 133 L 265 136 L 262 135 L 258 143 L 255 141 L 253 143 L 254 147 L 250 149 L 248 153 L 244 152 L 245 155 L 242 160 L 237 162 L 234 167 L 226 173 L 224 184 L 227 188 L 230 186 L 234 189 L 233 192 L 241 193 L 243 198 L 245 198 L 244 194 L 248 193 L 249 199 L 260 201 L 261 203 L 263 201 L 267 202 L 269 199 L 273 199 L 277 202 L 277 204 L 279 204 L 280 201 L 289 201 L 292 204 L 295 204 L 298 208 L 345 208 L 352 204 L 353 201 L 363 201 L 364 204 L 362 206 L 366 206 L 366 203 L 370 200 L 375 203 L 384 196 L 386 187 L 389 186 L 389 183 L 386 181 L 389 180 L 390 174 L 387 172 L 385 163 L 379 158 L 381 154 L 377 151 L 378 141 L 375 132 L 375 117 L 378 101 L 377 96 L 379 92 L 377 80 L 380 76 L 382 76 L 384 80 L 384 66 L 386 64 L 384 25 L 382 23 L 380 25 L 378 24 Z M 345 203 L 347 202 L 348 204 L 346 205 Z M 274 196 L 275 195 L 281 195 L 282 197 L 281 198 L 275 198 Z M 379 193 L 381 194 L 381 197 L 380 198 L 378 198 L 377 197 Z M 228 173 L 230 174 L 230 176 L 229 177 L 227 177 L 226 176 Z M 231 170 L 233 170 L 234 171 L 232 174 L 230 174 L 229 173 Z M 377 160 L 378 159 L 380 159 L 381 161 L 380 162 L 378 162 Z M 255 154 L 256 155 L 256 157 L 253 160 L 251 160 L 250 159 L 250 156 L 252 154 Z M 373 145 L 375 145 L 376 146 L 376 151 L 375 152 L 372 150 L 372 146 Z M 254 143 L 256 142 L 257 144 L 255 145 Z M 271 138 L 272 139 L 272 141 L 269 144 L 267 144 L 266 143 L 266 140 L 268 138 Z M 284 122 L 288 122 L 289 123 L 289 127 L 287 129 L 283 129 L 281 127 L 282 124 Z M 371 118 L 373 119 L 373 124 L 372 125 L 370 124 L 370 119 Z M 299 107 L 301 106 L 302 107 L 302 109 L 300 110 L 299 109 Z M 347 40 L 349 40 L 350 41 L 350 46 L 349 47 L 348 47 L 346 44 L 346 41 Z M 368 24 L 370 25 L 370 31 L 369 32 L 367 32 L 366 31 L 366 28 Z M 318 0 L 296 0 L 295 3 L 292 3 L 294 8 L 291 10 L 266 10 L 265 6 L 263 10 L 256 10 L 255 8 L 251 10 L 249 7 L 253 5 L 250 4 L 249 0 L 204 0 L 202 8 L 196 11 L 195 13 L 197 17 L 193 19 L 194 24 L 190 26 L 189 31 L 193 30 L 194 32 L 191 34 L 187 33 L 186 46 L 184 50 L 185 61 L 183 62 L 182 81 L 185 82 L 185 89 L 183 90 L 183 105 L 186 108 L 183 114 L 186 118 L 187 129 L 189 130 L 188 134 L 191 129 L 194 130 L 192 132 L 192 136 L 194 138 L 191 139 L 191 141 L 196 148 L 198 146 L 200 147 L 202 153 L 213 153 L 217 151 L 217 149 L 221 146 L 224 147 L 226 141 L 228 141 L 229 139 L 232 140 L 234 136 L 234 130 L 236 129 L 242 131 L 241 123 L 245 121 L 245 125 L 247 125 L 249 118 L 257 113 L 257 106 L 259 105 L 260 108 L 262 108 L 263 104 L 265 103 L 265 100 L 269 97 L 272 98 L 274 94 L 277 93 L 277 90 L 282 85 L 281 82 L 287 82 L 289 80 L 290 75 L 293 74 L 294 71 L 298 71 L 297 66 L 300 65 L 300 63 L 303 60 L 305 60 L 306 57 L 308 57 L 309 51 L 316 46 L 314 44 L 314 40 L 317 39 L 317 37 L 314 34 L 316 33 L 321 35 L 322 9 L 320 6 L 320 9 L 316 10 L 313 6 L 314 4 L 318 5 Z M 301 58 L 302 60 L 301 62 L 299 63 L 298 61 L 299 59 Z M 203 13 L 206 15 L 206 17 L 205 18 L 202 18 L 201 17 L 201 15 Z M 296 2 L 298 3 L 298 8 L 297 9 L 295 8 L 295 3 Z M 0 0 L 0 66 L 6 66 L 8 68 L 7 71 L 11 71 L 14 76 L 17 73 L 18 78 L 15 80 L 19 82 L 25 82 L 23 86 L 29 91 L 28 94 L 36 97 L 39 100 L 37 102 L 39 105 L 45 105 L 45 109 L 48 106 L 50 109 L 49 112 L 51 114 L 54 113 L 55 117 L 60 122 L 64 122 L 69 129 L 69 126 L 72 125 L 76 133 L 79 135 L 84 133 L 85 135 L 83 138 L 89 137 L 90 140 L 94 140 L 96 137 L 98 140 L 96 145 L 109 145 L 110 147 L 106 148 L 106 151 L 109 151 L 110 153 L 125 153 L 126 157 L 129 156 L 130 160 L 135 162 L 154 160 L 157 156 L 160 156 L 161 125 L 159 123 L 159 119 L 157 122 L 154 121 L 156 116 L 153 115 L 153 112 L 156 107 L 151 104 L 152 95 L 151 90 L 149 89 L 152 84 L 145 82 L 145 75 L 147 74 L 145 72 L 146 68 L 145 65 L 141 63 L 142 61 L 145 61 L 138 57 L 141 50 L 138 49 L 135 41 L 130 40 L 131 37 L 134 37 L 129 35 L 129 32 L 125 29 L 125 25 L 123 29 L 121 26 L 119 28 L 116 26 L 116 23 L 119 20 L 118 18 L 115 22 L 113 20 L 112 14 L 109 14 L 106 8 L 100 8 L 99 6 L 97 10 L 94 9 L 95 6 L 92 6 L 91 10 L 89 8 L 80 9 L 75 13 L 72 13 L 71 11 L 66 10 L 65 8 L 61 9 L 58 6 L 52 8 L 51 5 L 54 4 L 54 0 Z M 109 148 L 110 147 L 117 148 L 118 149 L 118 151 L 117 152 L 110 152 L 109 151 Z M 66 122 L 68 121 L 70 123 L 70 125 L 68 126 L 66 124 Z M 31 92 L 33 91 L 34 92 L 34 94 L 32 95 L 31 94 Z M 146 85 L 148 84 L 149 86 L 147 87 Z M 11 70 L 13 69 L 14 71 L 12 72 Z M 132 48 L 134 47 L 135 49 L 133 50 Z M 122 31 L 124 30 L 125 32 L 123 33 Z M 97 14 L 99 13 L 100 15 L 98 16 Z M 62 12 L 64 11 L 65 13 L 63 14 Z M 56 8 L 58 7 L 59 9 L 57 10 Z" fill="rgb(233, 151, 182)" fill-rule="evenodd"/>
<path d="M 273 487 L 265 490 L 261 494 L 260 494 L 256 499 L 253 505 L 252 511 L 251 512 L 251 521 L 252 522 L 253 527 L 258 535 L 265 541 L 271 544 L 277 545 L 278 546 L 289 546 L 297 542 L 304 535 L 308 526 L 308 512 L 307 511 L 306 506 L 302 500 L 295 493 L 288 489 L 286 489 L 282 487 Z M 509 402 L 506 405 L 507 463 L 503 521 L 506 537 L 512 550 L 543 592 L 560 631 L 565 639 L 639 639 L 639 563 L 600 505 L 550 441 L 520 405 L 516 402 Z M 472 384 L 464 388 L 456 395 L 455 395 L 431 419 L 431 420 L 428 422 L 428 423 L 424 427 L 420 435 L 420 445 L 426 452 L 436 457 L 444 465 L 458 487 L 468 497 L 473 499 L 476 499 L 481 497 L 486 492 L 491 483 L 492 477 L 493 476 L 493 471 L 494 470 L 494 453 L 493 452 L 492 432 L 491 431 L 491 425 L 490 424 L 490 415 L 489 414 L 488 403 L 487 402 L 485 394 L 483 391 L 478 386 L 474 384 Z M 530 367 L 528 370 L 528 377 L 533 387 L 548 407 L 559 424 L 570 438 L 579 452 L 590 466 L 594 473 L 599 478 L 611 494 L 622 505 L 630 511 L 639 515 L 639 379 L 629 374 L 614 369 L 601 367 L 600 366 L 595 366 L 594 365 L 586 365 L 585 364 L 546 363 L 545 364 L 540 364 Z M 442 362 L 442 363 L 446 363 L 446 362 Z M 434 362 L 434 363 L 435 363 L 435 362 Z M 412 362 L 412 363 L 416 363 L 416 362 Z M 388 362 L 388 363 L 392 363 L 392 362 Z M 370 362 L 370 363 L 382 363 L 382 362 Z M 327 362 L 327 363 L 328 363 L 328 362 Z M 192 362 L 192 363 L 204 363 L 204 362 Z M 175 362 L 175 363 L 176 363 L 176 362 Z M 312 360 L 314 363 L 318 363 L 318 362 L 314 362 L 313 360 Z M 296 360 L 296 361 L 297 361 L 297 360 Z M 180 360 L 180 361 L 181 361 L 181 360 Z M 213 359 L 213 362 L 215 363 L 214 359 Z M 439 358 L 439 359 L 440 359 L 440 358 Z M 390 358 L 390 359 L 391 359 L 391 358 Z M 386 358 L 386 359 L 387 359 L 387 358 Z M 345 358 L 345 361 L 346 361 L 347 363 L 351 363 L 351 362 L 347 362 L 346 360 L 347 359 L 352 359 L 352 358 Z M 330 357 L 330 360 L 331 360 L 331 357 Z M 322 357 L 322 360 L 323 360 L 323 357 Z M 303 357 L 302 359 L 303 360 L 303 363 L 304 363 L 304 357 Z M 187 357 L 187 363 L 188 363 L 188 357 Z M 254 356 L 254 358 L 255 358 L 255 356 Z M 247 356 L 247 361 L 248 361 L 249 363 L 253 363 L 253 362 L 249 362 L 248 361 L 248 356 Z M 220 356 L 219 356 L 219 361 L 218 363 L 220 363 Z M 365 355 L 364 355 L 365 360 L 363 362 L 359 362 L 358 361 L 358 357 L 359 355 L 357 355 L 357 366 L 358 366 L 358 364 L 359 363 L 364 363 L 366 360 L 366 356 Z M 445 354 L 445 355 L 446 355 L 446 354 Z M 429 354 L 429 363 L 430 363 L 430 360 L 431 359 L 435 359 L 435 358 L 431 358 L 430 357 L 430 354 Z M 422 354 L 422 363 L 423 363 L 423 354 Z M 415 354 L 415 355 L 416 355 L 416 354 Z M 406 354 L 405 354 L 405 357 L 404 358 L 400 358 L 399 357 L 399 355 L 398 355 L 398 362 L 399 362 L 399 360 L 400 359 L 404 359 L 405 360 L 405 363 L 406 363 Z M 334 354 L 334 363 L 335 363 L 335 360 L 336 359 L 340 359 L 341 360 L 341 362 L 342 362 L 341 358 L 336 358 L 335 357 L 335 354 Z M 315 354 L 314 354 L 312 357 L 313 357 Z M 285 358 L 285 359 L 291 359 L 292 360 L 292 363 L 293 363 L 293 354 L 292 354 L 292 357 L 291 358 Z M 273 354 L 273 363 L 274 363 L 274 354 Z M 267 354 L 266 354 L 266 357 L 265 358 L 261 358 L 260 356 L 259 356 L 259 361 L 260 361 L 261 359 L 265 359 L 266 360 L 266 363 L 267 363 Z M 235 354 L 235 363 L 244 363 L 243 361 L 243 354 L 242 354 L 242 361 L 241 362 L 237 362 L 236 361 L 236 354 Z M 224 354 L 224 363 L 225 363 L 225 360 L 226 359 L 230 361 L 229 358 L 226 358 L 225 357 L 225 354 Z M 176 354 L 175 354 L 176 356 L 175 358 L 172 358 L 171 357 L 171 354 L 170 354 L 170 363 L 171 363 L 171 360 L 172 359 L 176 359 L 177 357 L 177 355 Z M 221 323 L 210 325 L 210 326 L 221 326 Z M 397 319 L 395 318 L 393 322 L 389 326 L 386 327 L 386 328 L 391 327 L 397 322 Z M 366 319 L 364 318 L 362 322 L 358 326 L 355 327 L 355 328 L 360 327 L 366 322 Z M 329 318 L 327 318 L 321 324 L 318 326 L 316 326 L 316 327 L 319 327 L 328 323 L 329 322 Z M 639 308 L 632 307 L 631 308 L 622 308 L 621 309 L 608 310 L 603 312 L 598 312 L 597 313 L 594 313 L 593 314 L 578 317 L 575 319 L 566 321 L 563 323 L 558 324 L 555 326 L 553 326 L 545 330 L 543 330 L 538 334 L 538 336 L 541 339 L 543 339 L 550 342 L 553 342 L 557 344 L 561 344 L 566 346 L 570 346 L 575 348 L 580 348 L 581 349 L 586 349 L 587 350 L 592 350 L 593 351 L 599 351 L 600 352 L 607 352 L 608 353 L 616 353 L 617 354 L 623 354 L 624 355 L 639 356 Z M 421 295 L 417 297 L 415 297 L 413 299 L 407 302 L 402 309 L 402 312 L 401 313 L 402 320 L 403 322 L 409 327 L 417 328 L 418 327 L 423 326 L 423 325 L 421 326 L 416 326 L 414 325 L 410 321 L 408 316 L 408 311 L 411 303 L 415 299 L 421 296 Z M 230 283 L 230 326 L 236 326 L 236 283 Z M 426 282 L 426 283 L 427 283 L 431 287 L 431 289 L 432 290 L 432 291 L 430 292 L 430 293 L 432 294 L 432 318 L 431 319 L 432 326 L 438 326 L 438 290 L 433 284 Z M 420 282 L 407 285 L 406 286 L 406 289 L 408 290 L 412 286 L 417 283 L 420 283 Z M 313 282 L 313 283 L 317 284 L 321 288 L 323 292 L 323 295 L 324 296 L 324 303 L 323 305 L 329 305 L 330 303 L 330 297 L 327 289 L 319 283 Z M 309 282 L 307 283 L 303 283 L 301 285 L 299 285 L 292 292 L 289 300 L 289 308 L 290 309 L 291 315 L 299 324 L 307 327 L 307 326 L 304 325 L 300 321 L 298 317 L 297 311 L 296 310 L 296 299 L 300 289 L 305 284 L 309 283 Z M 287 274 L 283 274 L 283 280 L 282 281 L 282 287 L 281 289 L 282 289 Z M 244 274 L 248 287 L 250 290 L 250 293 L 251 294 L 252 299 L 254 302 L 254 305 L 256 308 L 260 322 L 262 326 L 269 326 L 267 322 L 262 305 L 260 302 L 254 282 L 252 279 L 252 276 L 251 274 Z M 188 274 L 188 326 L 195 326 L 195 275 L 194 274 Z M 376 270 L 376 274 L 373 281 L 371 283 L 366 283 L 366 284 L 369 284 L 370 285 L 370 317 L 372 322 L 375 325 L 380 327 L 377 322 L 377 285 L 378 284 L 388 284 L 388 283 L 378 283 L 377 282 L 377 270 Z M 345 270 L 345 274 L 342 281 L 340 283 L 335 283 L 335 284 L 338 284 L 339 285 L 339 317 L 342 323 L 344 325 L 349 327 L 346 322 L 346 285 L 347 284 L 357 284 L 357 283 L 347 283 L 346 282 L 346 270 Z M 232 270 L 229 273 L 229 276 L 232 278 L 234 278 L 236 277 L 237 273 L 236 271 Z M 639 200 L 633 203 L 618 214 L 581 250 L 581 251 L 570 262 L 570 263 L 562 271 L 562 272 L 549 285 L 549 286 L 535 301 L 534 308 L 536 311 L 538 311 L 539 312 L 549 311 L 550 310 L 553 310 L 554 309 L 556 309 L 560 307 L 563 307 L 567 305 L 577 304 L 578 303 L 595 303 L 618 294 L 621 294 L 628 291 L 633 291 L 634 290 L 639 289 Z M 639 0 L 586 0 L 586 2 L 576 14 L 568 27 L 560 44 L 547 78 L 534 120 L 518 192 L 510 262 L 510 278 L 512 284 L 516 288 L 521 288 L 528 284 L 563 253 L 611 205 L 639 173 Z M 428 0 L 426 4 L 419 8 L 408 19 L 404 26 L 400 40 L 399 69 L 404 108 L 425 189 L 442 240 L 464 286 L 468 291 L 474 294 L 478 294 L 485 289 L 489 279 L 490 176 L 495 154 L 513 109 L 518 91 L 521 71 L 520 37 L 518 28 L 512 16 L 501 7 L 489 3 L 488 0 Z" fill="rgb(210, 156, 202)" fill-rule="evenodd"/>
<path d="M 42 494 L 42 495 L 43 495 L 43 494 Z M 50 492 L 46 493 L 46 494 L 49 494 Z M 25 491 L 25 492 L 29 493 L 28 490 Z M 32 489 L 32 493 L 33 493 L 34 495 L 35 495 L 36 493 L 39 493 L 39 492 L 34 493 L 33 492 L 33 489 Z M 24 487 L 22 487 L 21 489 L 24 488 Z M 61 485 L 60 485 L 60 487 L 56 489 L 55 491 L 62 488 Z M 18 485 L 18 486 L 19 486 L 19 485 Z M 66 483 L 66 484 L 67 484 L 67 483 Z M 22 483 L 22 484 L 24 484 L 24 483 Z M 32 482 L 32 483 L 33 483 L 33 482 Z M 67 479 L 67 480 L 70 481 L 69 479 Z M 15 477 L 14 480 L 15 482 L 16 482 L 17 480 L 16 479 L 16 477 Z M 14 470 L 13 470 L 11 473 L 14 472 Z M 14 466 L 14 467 L 15 467 L 15 466 Z M 81 458 L 75 458 L 75 459 L 81 459 L 82 460 L 79 465 L 77 466 L 77 468 L 78 468 L 79 466 L 81 466 L 81 464 L 83 461 Z M 84 455 L 84 456 L 85 456 L 85 455 Z M 83 446 L 83 447 L 84 447 L 84 446 Z M 88 443 L 88 444 L 89 444 L 89 443 Z M 92 440 L 92 441 L 93 441 L 93 440 Z M 93 436 L 93 437 L 95 438 L 95 437 Z M 16 429 L 16 430 L 17 430 L 17 429 Z M 100 426 L 101 429 L 102 429 L 101 426 Z M 107 423 L 107 424 L 109 425 L 109 424 Z M 111 418 L 111 420 L 112 420 L 112 418 Z M 120 411 L 120 412 L 121 412 L 121 411 Z M 116 411 L 117 416 L 118 416 L 117 411 Z M 17 410 L 13 410 L 12 420 L 11 421 L 11 425 L 10 426 L 10 432 L 9 433 L 9 439 L 8 440 L 8 459 L 9 460 L 10 469 L 11 469 L 11 463 L 10 462 L 10 457 L 9 456 L 9 445 L 10 444 L 11 432 L 13 431 L 13 430 L 11 429 L 11 425 L 12 424 L 12 422 L 13 421 L 15 421 L 14 413 L 15 412 L 17 412 Z M 124 407 L 124 408 L 126 409 L 126 408 Z M 15 404 L 13 404 L 13 406 L 14 406 Z M 127 402 L 128 405 L 129 405 L 128 402 Z M 117 402 L 117 403 L 118 403 L 118 402 Z M 132 395 L 131 395 L 130 399 L 131 399 Z M 134 388 L 134 389 L 136 390 L 136 389 Z M 10 384 L 12 389 L 12 392 L 13 393 L 13 401 L 15 401 L 13 391 L 15 390 L 17 387 L 13 388 L 12 386 L 14 385 L 14 384 Z M 10 379 L 10 380 L 12 381 L 12 380 Z M 139 375 L 138 375 L 138 377 L 136 381 L 136 386 L 138 385 L 140 380 L 140 376 Z M 5 372 L 5 373 L 6 373 L 6 372 Z M 141 370 L 141 371 L 142 371 L 142 370 Z M 0 369 L 0 371 L 2 371 L 2 369 Z M 142 366 L 142 367 L 143 367 L 143 366 Z M 141 354 L 142 358 L 143 358 L 144 359 L 144 361 L 145 361 L 146 354 L 145 354 L 144 356 Z M 148 346 L 146 347 L 146 349 L 147 349 Z M 149 336 L 149 337 L 150 337 L 150 336 Z M 146 334 L 146 335 L 147 335 L 147 334 Z M 152 300 L 153 310 L 152 311 L 152 318 L 150 319 L 150 330 L 149 331 L 149 333 L 150 333 L 151 331 L 152 319 L 153 318 L 153 311 L 154 310 L 154 303 L 155 302 L 155 301 Z M 155 295 L 154 295 L 153 297 L 155 297 Z M 0 290 L 0 291 L 3 291 L 4 292 L 3 295 L 6 294 L 7 296 L 8 296 L 6 293 L 7 292 L 9 292 L 9 291 L 4 292 L 3 290 Z M 15 286 L 15 287 L 16 287 L 16 286 Z M 7 286 L 7 287 L 9 288 L 9 287 Z M 155 285 L 155 289 L 156 289 L 156 285 Z M 18 284 L 18 285 L 20 285 L 20 284 Z M 15 281 L 15 283 L 16 283 L 16 281 Z M 23 278 L 21 279 L 21 281 L 23 280 Z M 33 277 L 31 278 L 31 281 L 33 281 Z M 155 274 L 155 277 L 156 277 L 156 274 Z M 36 268 L 35 268 L 34 270 L 32 270 L 31 272 L 27 273 L 26 274 L 26 276 L 27 276 L 31 272 L 33 272 L 34 270 L 36 270 Z M 43 264 L 43 266 L 47 265 L 47 264 Z M 54 261 L 54 262 L 55 262 L 55 261 Z M 50 260 L 50 261 L 51 261 L 51 260 Z M 60 256 L 59 256 L 58 258 L 60 258 Z M 82 252 L 82 254 L 86 254 L 87 253 L 87 252 Z M 156 251 L 155 251 L 156 262 L 154 263 L 153 262 L 153 259 L 152 259 L 152 272 L 153 272 L 153 266 L 154 265 L 157 265 Z M 76 249 L 74 249 L 70 251 L 70 252 L 73 254 L 73 252 L 76 250 Z M 89 243 L 85 245 L 83 245 L 83 246 L 88 245 Z M 149 241 L 150 246 L 153 248 L 150 244 L 150 241 Z M 95 241 L 94 241 L 92 248 L 93 248 L 93 246 L 94 245 L 97 246 L 97 245 L 95 244 Z M 140 240 L 140 241 L 141 241 L 141 240 Z M 112 240 L 112 241 L 113 241 L 113 240 Z M 144 239 L 144 240 L 145 240 L 145 239 Z M 99 239 L 99 240 L 100 240 L 100 239 Z M 104 237 L 104 239 L 105 239 L 105 237 Z M 24 237 L 31 236 L 31 235 L 27 235 L 26 236 L 24 236 Z M 0 240 L 9 240 L 10 238 L 12 239 L 17 239 L 17 238 L 15 238 L 13 236 L 13 234 L 3 234 L 3 235 L 9 235 L 10 236 L 10 238 L 9 239 L 0 239 Z M 117 233 L 110 235 L 110 236 L 112 237 L 113 235 L 117 235 Z M 19 232 L 19 234 L 22 233 L 22 232 Z M 136 231 L 136 233 L 138 233 L 140 237 L 142 237 L 142 236 L 138 233 L 138 231 Z M 123 231 L 120 232 L 120 233 L 123 233 Z M 126 230 L 126 232 L 131 232 L 131 230 Z M 47 230 L 47 231 L 48 231 L 48 230 Z M 44 230 L 41 230 L 37 233 L 34 234 L 34 235 L 41 233 L 42 231 L 44 231 Z M 55 228 L 55 229 L 57 229 L 57 228 Z M 59 226 L 59 227 L 61 227 L 61 226 Z M 74 223 L 79 222 L 79 221 L 76 221 L 74 222 Z M 66 221 L 66 225 L 69 225 L 69 223 Z M 71 218 L 71 219 L 72 219 L 72 218 Z M 86 219 L 94 217 L 94 216 L 88 216 Z M 101 212 L 99 213 L 99 215 L 101 214 Z M 109 211 L 107 211 L 106 213 L 109 212 Z M 114 209 L 114 210 L 116 210 L 116 209 Z M 347 208 L 345 209 L 297 209 L 297 210 L 315 210 L 316 211 L 326 211 L 327 210 L 346 210 Z M 356 207 L 356 208 L 363 208 L 363 207 Z M 350 205 L 351 209 L 353 209 L 352 205 Z M 264 204 L 264 205 L 265 205 L 265 204 Z M 124 204 L 122 204 L 119 208 L 122 208 L 122 206 L 124 205 Z M 370 206 L 377 204 L 377 203 L 375 204 L 370 203 Z M 346 203 L 346 204 L 347 204 L 347 203 Z M 294 205 L 290 205 L 289 204 L 289 202 L 287 202 L 288 204 L 288 206 L 287 207 L 282 207 L 281 206 L 279 206 L 279 207 L 280 208 L 287 208 L 289 207 L 290 209 L 291 209 L 291 207 L 292 206 L 294 206 Z M 379 200 L 379 201 L 380 201 L 380 200 Z M 269 200 L 271 203 L 269 206 L 273 206 L 275 207 L 275 206 L 273 206 L 272 205 L 273 200 Z M 250 200 L 250 201 L 252 202 L 260 203 L 260 202 L 255 202 L 252 200 Z M 120 197 L 119 199 L 121 200 L 122 198 Z M 378 196 L 378 197 L 379 197 L 379 196 Z M 275 196 L 275 197 L 281 197 L 281 196 Z M 238 195 L 238 197 L 242 199 L 242 198 Z M 127 193 L 128 196 L 126 197 L 126 198 L 128 198 L 129 199 L 129 200 L 127 201 L 127 202 L 129 202 L 130 197 L 129 196 L 129 194 Z M 389 192 L 387 192 L 387 194 L 383 197 L 383 198 L 386 197 L 387 196 L 387 194 L 389 193 Z M 122 192 L 122 193 L 123 193 L 123 192 Z M 114 192 L 114 193 L 116 193 L 116 192 Z M 230 191 L 230 192 L 232 192 L 232 191 Z M 226 189 L 226 190 L 227 190 L 227 189 Z M 115 188 L 115 189 L 116 189 L 116 188 Z M 98 186 L 98 189 L 101 189 L 101 187 L 100 186 Z M 390 183 L 390 185 L 392 185 L 392 183 Z M 102 183 L 102 184 L 104 185 L 104 184 Z M 99 178 L 99 179 L 100 179 L 100 178 Z M 103 177 L 103 180 L 105 180 L 105 178 Z M 391 176 L 391 177 L 392 177 L 392 176 Z M 223 176 L 222 177 L 222 183 L 223 184 L 223 186 L 224 186 L 223 184 L 224 182 L 224 180 L 223 179 L 224 176 Z M 92 176 L 92 177 L 93 177 L 93 176 Z M 97 175 L 97 176 L 98 176 L 98 175 Z M 90 172 L 90 173 L 92 173 L 92 172 Z M 233 171 L 231 171 L 230 173 L 227 175 L 227 176 L 229 176 L 229 174 L 230 173 L 232 173 Z M 228 170 L 226 170 L 225 172 L 227 172 Z M 388 169 L 388 171 L 391 173 L 390 170 Z M 75 166 L 75 169 L 76 169 L 76 166 Z M 83 164 L 83 165 L 85 166 L 85 165 Z M 138 163 L 138 165 L 139 165 L 139 163 Z M 142 162 L 142 163 L 143 163 L 143 162 Z M 76 162 L 76 163 L 80 166 L 81 162 L 80 162 L 79 164 Z M 235 161 L 231 164 L 232 167 L 233 167 L 233 165 L 235 164 Z M 385 160 L 385 161 L 386 161 L 386 160 Z M 157 160 L 155 159 L 154 161 L 151 161 L 150 163 L 146 164 L 146 165 L 151 164 L 153 162 L 157 161 Z M 71 159 L 71 160 L 72 160 L 72 159 Z M 129 157 L 127 158 L 122 158 L 122 160 L 126 159 L 127 160 L 127 162 L 128 162 L 129 161 Z M 118 156 L 118 157 L 120 157 L 120 156 Z M 255 155 L 252 155 L 251 156 L 251 159 L 253 159 L 255 157 Z M 210 155 L 209 154 L 207 154 L 204 156 L 202 156 L 202 157 L 207 155 L 210 156 Z M 67 154 L 67 155 L 68 155 L 68 154 Z M 243 152 L 242 152 L 239 156 L 238 160 L 239 160 L 239 158 L 240 157 L 243 157 L 244 155 Z M 218 152 L 216 152 L 215 154 L 218 153 Z M 247 151 L 247 152 L 248 152 L 248 151 Z M 61 151 L 61 152 L 63 152 L 63 151 Z M 380 148 L 380 151 L 382 154 L 382 157 L 385 157 L 384 154 L 383 154 L 381 151 L 382 148 Z M 221 147 L 221 148 L 222 148 L 222 147 Z M 198 147 L 198 148 L 199 148 L 199 147 Z M 192 147 L 192 148 L 194 149 L 194 151 L 198 152 L 198 151 L 197 151 L 194 147 Z M 97 147 L 97 149 L 100 150 L 100 149 Z M 373 146 L 373 150 L 375 151 L 375 146 Z M 225 146 L 225 147 L 226 147 L 226 146 Z M 106 146 L 106 147 L 109 147 L 110 148 L 110 151 L 109 152 L 106 152 L 106 153 L 107 154 L 110 154 L 112 156 L 115 157 L 115 156 L 112 154 L 110 154 L 109 152 L 110 151 L 117 151 L 117 149 L 110 148 L 109 146 Z M 57 147 L 54 146 L 53 148 L 51 148 L 51 150 L 53 150 L 53 148 L 54 147 L 57 148 Z M 253 145 L 250 144 L 250 146 L 249 147 L 247 147 L 247 148 L 251 148 L 253 147 Z M 37 143 L 37 145 L 39 145 L 39 144 Z M 47 142 L 47 143 L 48 143 L 48 142 Z M 87 141 L 87 143 L 88 144 L 91 145 L 91 143 L 93 142 L 94 143 L 94 145 L 95 145 L 95 143 L 94 143 L 93 141 L 91 141 L 90 142 Z M 271 139 L 268 139 L 267 140 L 267 143 L 269 143 L 271 141 Z M 233 139 L 233 140 L 234 140 L 234 139 Z M 95 138 L 95 140 L 97 141 L 96 138 Z M 259 136 L 256 138 L 257 142 L 255 143 L 255 144 L 259 141 L 260 139 Z M 77 136 L 77 137 L 80 138 L 80 136 Z M 37 136 L 39 140 L 41 141 L 41 138 Z M 83 134 L 83 135 L 84 135 L 84 134 Z M 74 134 L 74 135 L 75 135 L 75 134 Z M 18 134 L 18 135 L 21 135 L 21 134 Z M 261 133 L 261 134 L 262 134 L 262 133 Z M 191 132 L 190 132 L 190 134 L 189 135 L 187 135 L 187 137 L 189 137 L 189 136 L 191 135 Z M 240 131 L 239 131 L 237 134 L 238 134 Z M 376 130 L 377 137 L 378 138 L 380 145 L 381 145 L 380 140 L 379 139 L 379 136 L 378 135 L 378 130 Z M 161 129 L 161 153 L 162 153 L 162 129 Z M 22 129 L 24 133 L 30 133 L 31 135 L 35 135 L 35 134 L 30 133 L 27 130 Z M 66 128 L 66 129 L 68 130 L 68 129 Z M 0 128 L 0 129 L 2 129 L 2 128 Z M 243 127 L 243 128 L 244 128 L 244 127 Z M 15 127 L 16 129 L 19 130 L 17 127 Z M 5 127 L 5 128 L 7 128 L 8 129 L 11 129 L 12 128 L 12 127 Z M 288 123 L 284 123 L 282 127 L 283 128 L 287 127 Z M 184 123 L 185 130 L 186 130 L 185 123 Z M 67 122 L 67 124 L 69 125 L 71 128 L 73 128 L 73 127 L 72 126 L 70 126 L 69 125 L 69 123 Z M 58 121 L 58 123 L 59 123 L 59 121 Z M 371 119 L 371 124 L 372 124 L 372 119 Z M 376 117 L 376 126 L 377 126 L 377 117 Z M 183 117 L 183 118 L 184 118 L 184 117 Z M 256 116 L 251 117 L 252 120 L 250 121 L 250 123 L 253 121 L 252 118 L 253 117 L 256 117 Z M 53 116 L 53 117 L 54 117 L 54 116 Z M 159 112 L 159 113 L 158 114 L 156 114 L 156 115 L 158 115 L 159 116 L 160 123 L 161 123 L 161 117 L 160 116 L 160 112 Z M 262 110 L 260 109 L 258 112 L 262 111 Z M 184 109 L 184 110 L 185 110 L 185 109 Z M 287 108 L 284 110 L 285 112 L 284 114 L 280 114 L 280 115 L 278 116 L 275 120 L 274 120 L 274 122 L 273 123 L 271 123 L 267 127 L 266 132 L 269 131 L 269 128 L 271 127 L 272 125 L 275 125 L 276 123 L 275 120 L 276 119 L 278 119 L 280 116 L 282 116 L 286 113 L 285 110 L 287 109 Z M 48 108 L 47 108 L 46 113 L 48 112 Z M 43 108 L 43 109 L 44 109 L 44 108 Z M 379 107 L 377 107 L 377 113 L 378 113 Z M 300 107 L 300 109 L 301 109 L 301 107 Z M 264 104 L 264 107 L 265 107 L 265 104 Z M 37 104 L 37 105 L 38 105 L 38 104 Z M 270 98 L 269 98 L 266 102 L 270 102 Z M 36 98 L 33 100 L 34 102 L 35 102 Z M 298 96 L 297 96 L 295 99 L 293 100 L 291 103 L 290 103 L 290 104 L 295 102 L 295 100 Z M 26 93 L 26 94 L 27 94 L 28 96 L 31 98 L 30 95 L 28 95 L 27 93 Z M 32 92 L 32 94 L 33 94 L 33 92 Z M 382 91 L 380 91 L 379 93 L 379 95 L 380 96 L 379 102 L 380 102 L 380 100 L 381 99 Z M 304 89 L 303 89 L 302 91 L 303 91 Z M 282 88 L 281 88 L 280 90 L 281 90 Z M 23 87 L 23 88 L 24 88 L 24 87 Z M 152 86 L 152 94 L 153 95 L 152 97 L 152 104 L 154 105 L 155 104 L 158 104 L 158 103 L 157 102 L 157 98 L 156 98 L 153 94 L 154 87 Z M 153 102 L 155 101 L 156 103 L 154 104 Z M 153 98 L 155 97 L 156 99 L 154 100 Z M 306 85 L 306 86 L 307 86 L 307 85 Z M 147 85 L 147 86 L 148 86 L 148 85 Z M 378 84 L 378 87 L 379 87 L 379 84 Z M 283 84 L 283 85 L 285 86 L 285 85 Z M 311 83 L 311 84 L 312 84 L 312 83 Z M 19 83 L 19 84 L 20 84 L 20 83 Z M 184 82 L 181 82 L 181 98 L 182 98 L 182 84 L 184 83 Z M 382 81 L 382 83 L 384 84 L 384 82 Z M 288 81 L 288 82 L 289 82 L 289 81 Z M 17 76 L 14 77 L 13 80 L 14 80 L 15 78 L 17 78 Z M 315 75 L 314 75 L 312 79 L 316 78 Z M 291 75 L 291 76 L 292 76 L 292 75 Z M 295 72 L 295 73 L 297 73 L 297 72 Z M 7 72 L 7 73 L 8 73 L 8 72 Z M 148 71 L 148 75 L 150 76 L 150 79 L 149 80 L 149 81 L 150 81 L 151 76 L 149 71 Z M 12 70 L 12 71 L 13 71 L 13 70 Z M 320 69 L 319 69 L 318 71 L 319 71 Z M 385 67 L 385 73 L 386 73 L 386 67 Z M 5 67 L 5 68 L 6 68 L 6 67 Z M 323 64 L 322 64 L 321 67 L 322 67 Z M 146 63 L 147 68 L 148 68 L 147 63 Z M 142 62 L 142 63 L 143 63 L 143 62 Z M 303 61 L 304 65 L 305 65 L 306 62 L 305 61 Z M 301 59 L 300 59 L 299 62 L 300 62 Z M 144 58 L 144 59 L 145 59 L 145 58 Z M 309 54 L 309 56 L 311 56 L 311 55 Z M 140 52 L 140 55 L 141 55 L 141 52 Z M 335 51 L 331 50 L 329 54 L 329 56 L 327 57 L 327 58 L 328 58 L 329 56 L 333 56 L 331 53 L 332 52 L 335 53 Z M 133 48 L 133 49 L 134 49 L 134 48 Z M 184 47 L 182 47 L 182 54 L 181 55 L 181 70 L 182 70 L 182 55 L 183 54 Z M 386 45 L 386 52 L 387 53 L 387 55 L 388 55 L 388 45 Z M 336 45 L 335 45 L 334 47 L 335 47 Z M 137 42 L 138 46 L 140 49 L 141 49 L 140 46 L 138 44 L 138 42 Z M 347 41 L 347 44 L 348 46 L 349 46 L 349 41 Z M 387 40 L 387 41 L 388 41 L 388 40 Z M 342 38 L 340 38 L 337 43 L 338 43 L 339 41 L 342 39 Z M 135 38 L 135 39 L 136 39 L 136 38 Z M 315 34 L 315 35 L 317 35 L 320 37 L 320 39 L 319 40 L 317 40 L 317 41 L 320 41 L 321 37 L 320 37 L 319 35 Z M 133 34 L 133 35 L 134 35 L 134 34 Z M 387 32 L 387 33 L 388 33 L 388 32 Z M 123 31 L 123 32 L 124 32 L 124 31 Z M 188 30 L 186 30 L 185 31 L 183 43 L 185 43 L 186 33 Z M 369 27 L 367 28 L 367 31 L 369 31 Z M 122 27 L 122 28 L 123 28 L 123 27 Z M 325 24 L 323 24 L 323 29 L 322 31 L 323 31 Z M 187 24 L 187 25 L 188 25 L 188 24 Z M 366 23 L 366 24 L 367 24 L 367 23 Z M 362 22 L 358 21 L 357 23 L 355 23 L 353 26 L 351 26 L 351 27 L 356 26 L 360 23 L 362 23 Z M 189 19 L 189 20 L 190 20 L 190 19 Z M 114 19 L 114 20 L 116 21 L 116 19 Z M 122 18 L 121 18 L 120 22 L 119 23 L 117 23 L 117 26 L 118 27 L 119 27 L 120 23 L 122 22 Z M 363 18 L 364 21 L 365 21 L 366 19 L 369 21 L 369 20 L 367 19 L 367 17 Z M 371 15 L 371 16 L 375 16 L 376 18 L 377 18 L 377 16 L 376 15 Z M 323 15 L 324 20 L 325 20 L 324 15 Z M 193 15 L 193 16 L 196 17 L 195 15 Z M 203 14 L 202 15 L 202 17 L 205 17 L 205 15 Z M 115 14 L 115 15 L 117 16 L 117 14 Z M 98 14 L 98 15 L 99 15 L 99 14 Z M 63 12 L 63 13 L 64 13 L 64 12 Z M 195 9 L 194 9 L 193 12 L 195 12 Z M 107 8 L 107 10 L 108 10 L 109 11 L 109 13 L 110 13 L 110 9 L 109 8 Z M 67 8 L 67 9 L 68 9 L 68 8 Z M 57 8 L 57 9 L 58 9 L 58 8 Z M 277 6 L 278 8 L 281 8 L 281 6 Z M 267 6 L 267 7 L 271 8 L 271 6 Z M 65 6 L 61 7 L 61 8 L 65 7 Z M 296 5 L 296 6 L 297 6 L 297 5 Z M 284 5 L 284 6 L 285 6 L 285 5 Z M 255 5 L 255 7 L 256 7 L 257 5 L 258 5 L 259 7 L 262 7 L 263 6 L 263 5 L 260 6 L 259 4 Z M 95 4 L 95 5 L 99 5 L 100 7 L 104 7 L 103 5 L 100 6 L 99 4 Z M 89 4 L 84 5 L 78 8 L 71 8 L 71 10 L 72 12 L 75 12 L 78 8 L 83 8 L 84 6 L 89 7 Z M 321 0 L 319 0 L 319 5 L 318 6 L 314 5 L 314 6 L 316 7 L 316 9 L 319 9 L 319 6 L 322 4 Z M 295 0 L 291 0 L 291 2 L 288 4 L 288 5 L 291 5 L 291 3 L 292 2 L 295 2 Z M 254 0 L 250 0 L 251 4 L 254 2 Z M 203 0 L 200 0 L 201 5 L 199 6 L 198 8 L 200 8 L 201 7 L 201 5 L 203 4 Z M 57 0 L 55 0 L 55 4 L 54 5 L 52 5 L 52 6 L 54 6 L 55 4 L 57 4 Z" fill="rgb(243, 186, 204)" fill-rule="evenodd"/>
</svg>